<?xml version="1.0" encoding="UTF-8" standalone="no"?>
<!-- Generator: Adobe Illustrator 16.0.0, SVG Export Plug-In . SVG Version: 6.00 Build 0)  -->
<svg fill="white" 
    xmlns="http://www.w3.org/2000/svg" 
    height="510px" 
    width="510px"  > 
    <path
                d="m 255,510 c 28.05,0 51,-22.95 51,-51 l -102,0 c 0,28.05 22.95,51 51,51 z m 165.75,-153 0,-140.25 C 420.75,137.7 367.2,73.95 293.25,56.1 l 0,-17.85 C 293.25,17.85 275.4,0 255,0 234.6,0 216.75,17.85 216.75,38.25 l 0,17.85 C 142.8,73.95 89.25,137.7 89.25,216.75 l 0,140.25 -51,51 0,25.5 433.5,0 0,-25.5 -51,-51 z" id="path6" />
</svg>